# xmcd
#
# Track frame offsets: 
#        150
#        12881
#        24262
#        36044
#        48088
#        60018
#        71678
#        83173
#        94564
#        105981
#        119023
#        131112
#        143742
#        155514
#        174063
#        186664
#        197674
#        208757
#        220080
#        241546
#        253711
#        266201
#        278671
#        292708
#        306229
#        317641
#        330525
#
# Disc length: 4598 seconds
#
# Revision: 0
# Processed by: cddbd v1.5.2PL0 Copyright (c) Steve Scherf et al.
# Submitted via: ExactAudioCopyFreeDBPlugin 1.0
#
DISCID=7011f41b
DTITLE=Roy Acuff and The Smoky Mountain Boys - The King Of Country Music
DTITLE=Various Artist - Disc 9
DYEAR=1900
DGENRE=Country
TTITLE0=Baldknob Arkansas (False Start and Take)
TTITLE1=Baldknob Arkansas (Take 2)
TTITLE2=A Plastic Heart (Take 1)
TTITLE3=A Plastic Heart (Take 2)
TTITLE4=Advice To Joe (Take 1)
TTITLE5=Advice To Joe (Take 2)
TTITLE6=When My Money Run Out (I Lost All My Friends) (Take 1)
TTITLE7=When My Money Run Out (I Lost All My Friends) (Take 2)
TTITLE8=When My Money Run Out (I Lost All My Friends) (Take 3)
TTITLE9=Your Address Unknown
TTITLE10=The Southbound Train
TTITLE11=Pliney Jane
TTITLE12=Waltz Of The Wind
TTITLE13=Waltz Of Broken Vows (Breakdown and Take)
TTITLE14=Cheating
TTITLE15=Don't Hang Your Dirty Linen On My Line (Take 1)
TTITLE16=Don't Hang Your Dirty Linen On My Line (Take 2)
TTITLE17=Don't Hang Your Dirty Linen On My Line (Take 3)
TTITLE18=I'll Be Alone (Breakdown and Take)
TTITLE19=Doug McArthur
TTITLE20=In The Shadow Of The Smokies
TTITLE21=She Isn't Guaranteed
TTITLE22=Wonder Is All I Do
TTITLE23=Thy Burdens Are Greater Than Mine
TTITLE24=Ten Little Numbers
TTITLE25=Just A Friend
TTITLE26=My Tears Don't Show
EXTD=
EXTT0=
EXTT1=
EXTT2=
EXTT3=
EXTT4=
EXTT5=
EXTT6=
EXTT7=
EXTT8=
EXTT9=
EXTT10=
EXTT11=
EXTT12=
EXTT13=
EXTT14=
EXTT15=
EXTT16=
EXTT17=
EXTT18=
EXTT19=
EXTT20=
EXTT21=
EXTT22=
EXTT23=
EXTT24=
EXTT25=
EXTT26=
PLAYORDER=
